,
Brought to you by  http://www.scenetime.com/signup.php
 
 Hottest scene tracker on the net !!!   
 
No fake torrents from scenebalance 
shame on those who comment fake before downloading my torrents

    seed back for speed


 



...................................NFO:.................................................Hall Pass 2011 PPVRiP XViD-SCR0N

   General
      \Hall Pass 2011 PPVRiP XViD-SCR0N.avi
      Format : AVI
      Format/Info : Audio Video Interleave
      File size : 1.74 GiB
      Duration : 1h 44mn
      Overall bit rate : 2 381 Kbps

   Video #0
      ID : 0
      Format : MPEG-4 Visual
      Format profile : AdvancedSimple@L5
      Format settings, BVOP : Yes
      Format settings, QPel : No
      Format settings, GMC : No warppoints
      Format settings, Matrix : Default (H.263)
      Muxing mode : Packed bitstream
      Codec ID : XVID
      Codec ID/Hint : XviD
      Duration : 1h 44mn
      Bit rate : 1 917 Kbps
      Width : 632 pixels
      Height : 420 pixels
      Display aspect ratio : 1.505
      Frame rate : 29.970 fps
      Resolution : 24 bits
      Colorimetry : 4:2:0
      Scan type : Progressive
      Bits/(Pixel*Frame) : 0.241
      Stream size : 1.40 GiB (81%)
     
   Audio #1
      ID : 1
      Format : AC-3
      Format/Info : Audio Coding 3
      Codec ID : 2000
      Duration : 1h 44mn
      Bit rate mode : Constant
      Bit rate : 320 Kbps
      Channel(s) : 2 channels
      Channel positions : L R
      Sampling rate : 48.0 KHz
      Stream size : 239 MiB (13%)
      Alignment : Aligned on interleaves
      Interleave, duration : 64 ms (1.92 video frames)
      Interleave, preload duration : 192 ms
     
   Audio #2
      ID : 2
      Format : MPEG Audio
      Format version : Version 1
      Format profile : Layer 3
      Codec ID : 55
      Codec ID/Hint : MP3
      Duration : 1h 44mn
      Bit rate mode : Constant
      Bit rate : 128 Kbps
      Channel(s) : 2 channels
      Sampling rate : 44.1 KHz
      Resolution : 16 bits
      Stream size : 95.7 MiB (5%)
      Alignment : Aligned on interleaves
      Interleave, duration : 26 ms (0.78 video frame)
      Interleave, preload duration : 182 ms